{"title":"Maximum Ride 2016 Movies HDRip XviD AAC New Source +Sample ☻rDX☻","uid":15718775,"size":739325500,"categoryP":"video","categoryS":"movies","magnet":"?xt=urn:btih:e4b3a9957fb500a6cf404786c580628f012f435c&amp;dn=Maximum+Ride+2016+Movies+HDRip+XviD+AAC+New+Source+%2BSample+%E2%98%BBrDX%E2%98%BB&amp;tr=udp%3A%2F%2Ftracker.leechers-paradise.org%3A6969&amp;tr=udp%3A%2F%2Fzer0day.ch%3A1337&amp;tr=udp%3A%2F%2Fopen.demonii.com%3A1337&amp;tr=udp%3A%2F%2Ftracker.coppersurfer.tk%3A6969&amp;tr=udp%3A%2F%2Fexodus.desync.com%3A6969","seeders":6,"leechers":2,"uploader":"basicssom","files":2,"time":1472654327,"description":"----------------------------------------------------------------\r\nMaximum Ride 2016 English Movies HDRip XviD AAC New Source with Sample ☻rDX☻\r\n\r\nSCREEN SHOTS &amp; POSTER:\r\n  \nhttp://postimage.co.nr/2016/9/phone/index.htm  \nhttp://postimage.co.nr/2016/9/phone/1.html  \nhttp://postimage.co.nr/2016/9/phone/2.html  \nhttp://postimage.co.nr/2016/9/phone/3.html  \nhttp://postimage.co.nr/2016/9/phone/4.html  \nhttp://postimage.co.nr/2016/9/phone/5.html  \nhttp://postimage.co.nr/2016/9/phone/6.html  \nhttp://postimage.co.nr/2016/9/phone/7.html  \nhttp://postimage.co.nr/2016/9/phone/8.html  \nhttp://postimage.co.nr/2016/9/phone/9.html  \nhttp://postimage.co.nr/2016/9/phone/10.html\r\n\r\nFormat                                   : Matroska\r\nFormat version                           : Version 4 / Version 2\r\nFile size                                : 698 MiB\r\nDuration                                 : 1 h 28 min\r\nOverall bit rate mode                    : Constant\r\nOverall bit rate                         : 1 106 kb/s\r\nMovie name                               : Maximum Ride 2016 English Movies HDRip XviD AAC New Source ☻rDX☻\r\n\r\nVideo\r\nID                                       : 2\r\nFormat                                   : AVC\r\nFormat/Info                              : Advanced Video Codec\r\nFormat profile                           :   \r\nFormat settings, CABAC                   : Yes\r\nFormat settings, ReFrames                : 2 frames\r\nFormat settings, GOP                     : M=1, N=12\r\nCodec ID                                 : V_MPEG4/ISO/AVC\r\nDuration                                 : 1 h 28 min\r\nBit rate mode                            : Constant\r\nBit rate                                 : 723 kb/s\r\nWidth                                    : 720 pixels\r\nHeight                                   : 400 pixels\r\nDisplay aspect ratio                     : 16:9\r\nFrame rate mode                          : Constant\r\nFrame rate                               : 23.976 (23976/1000) FPS\r\nColor space                              : YUV\r\nChroma subsampling                       : 4:2:0\r\nBit depth                                : 8 bits\r\nScan type                                : Progressive\r\nBits/(Pixel*Frame)                       : 0.105\r\nStream size                              : 442 MiB (63%)\r\nTitle                                    : ☻rDX☻\r\nDefault                                  : Yes\r\nForced                                   : No\r\n\r\nAudio\r\nID                                       : 1\r\nFormat                                   : AC-3\r\nFormat/Info                              : Audio Coding 3\r\nMode extension                           : CM (complete main)\r\nFormat settings, Endianness              : Big\r\nCodec ID                                 : A_AC3\r\nDuration                                 : 1 h 28 min\r\nBit rate mode                            : Constant\r\nBit rate                                 : 384 kb/s\r\nChannel(s)                               : 6 channels\r\nChannel positions                        : Front: L C R, Side: L R, LFE\r\nSampling rate                            : 48.0 kHz\r\nFrame rate                               : 31.250 FPS (1536 spf)\r\nCompression mode                         : Lossy\r\nStream size                              : 242 MiB (35%)\r\nTitle                                    : ☻rDX☻\r\nDefault                                  : Yes\r\nForced                                   : No\r\n\r\nIMDB \nhttp://www.imdb.com/title/tt0825283/","torrent":{"xt":"urn:btih:e4b3a9957fb500a6cf404786c580628f012f435c","amp;dn":"Maximum+Ride+2016+Movies+HDRip+XviD+AAC+New+Source+%2BSample+%E2%98%BBrDX%E2%98%BB","amp;tr":["udp%3A%2F%2Ftracker.leechers-paradise.org%3A6969","udp%3A%2F%2Fzer0day.ch%3A1337","udp%3A%2F%2Fopen.demonii.com%3A1337","udp%3A%2F%2Ftracker.coppersurfer.tk%3A6969","udp%3A%2F%2Fexodus.desync.com%3A6969"],"infoHash":"e4b3a9957fb500a6cf404786c580628f012f435c","infoHashBuffer":{"type":"Buffer","data":[228,179,169,149,127,181,0,166,207,64,71,134,197,128,98,143,1,47,67,92]},"announce":[],"urlList":[]}}